<svg width="1695" height="1693" viewBox="0 0 1695 1693" fill="none" xmlns="http://www.w3.org/2000/svg">
<path d="M1131.19 728.103L1126.23 734.626L1134.42 734.525L1250.9 733.085L1175.26 806.861L1170.9 811.11L1176.53 813.424L1431.71 918.36L1110.59 964.548L1103.81 965.524L1108 970.95L1231.85 1131.59L1125.87 1098.78L1117.78 1096.27L1120.98 1104.11L1204.89 1309.78L948.087 1116.77L940.113 1110.77L941.737 1120.61L979.931 1352.11L868.819 1207.99L864.635 1202.57L861.967 1208.88L768.642 1429.57L728.22 1127.33L727.042 1118.52L721.23 1125.24L533.447 1342.48L577.214 1132.11L578.755 1124.7L571.765 1127.6L378.715 1207.67L517.868 1024.77L521.635 1019.82L515.567 1018.45L306.198 971.096L452.323 858.344L457.807 854.112L451.401 851.478L263.3 774.125L498.142 740.345L505.177 739.333L500.662 733.844L381.029 588.424L587.378 637.875L594.958 639.691L592.014 632.474L490.12 382.702L692.093 534.51L696.986 538.188L698.39 532.23L739.904 355.946L830.73 473.752L834.914 479.178L837.582 472.868L926.365 262.912L955.799 483.005L956.718 489.874L962.206 485.643L1119.09 364.691L1036.92 593.451L1033.86 601.963L1042.21 598.498L1316.29 484.813L1131.19 728.103Z" fill="#F16526" stroke="#EE1F26" stroke-width="8"/>
<path fill-rule="evenodd" clip-rule="evenodd" d="M1056.7 765.93L1196.22 580.589L988.148 667.492L1049.95 492.015L928.966 586.025L905.136 415.743L837.664 578.032L767.521 487.768L736.878 621.713L581.318 505.388L660.37 696.339L502.121 658.619L595.059 770.753L414.455 797.011L561.031 857.027L450.759 942.78L608.785 978.322L502.295 1119.78L651.781 1057.35L618.815 1221.06L761.206 1054.72L793.381 1284.63L864.096 1114.54L952.406 1228.18L921.7 1048.79L1117.2 1194.98L1051.39 1036.03L1137.14 1062.46L1040.97 938.704L1284.06 903.362L1088.73 823.383L1148.39 764.682L1056.7 765.93Z" fill="#F5BE09"/>
</svg>
