<svg xmlns="http://www.w3.org/2000/svg" version="1.0" width="1084.000000pt" height="1088.000000pt" viewBox="0 0 1084.000000 1088.000000" preserveAspectRatio="xMidYMid meet">

<g transform="translate(0.000000,1088.000000) scale(0.100000,-0.100000)" fill="#9d5cc3" stroke="none">
<path d="M5079 10856 c-129 -46 -202 -153 -203 -296 0 -130 66 -234 183 -289 48 -22 69 -26 151 -26 84 0 101 3 146 27 108 57 161 158 152 292 -8 123 -73 222 -180 276 -53 26 -72 30 -137 30 -42 -1 -92 -7 -112 -14z" fill="#9d5cc3"/>
<path d="M5735 10726 c-95 -45 -139 -117 -138 -226 1 -72 11 -107 50 -163 97 -140 323 -122 407 33 75 138 25 310 -106 365 -57 23 -153 19 -213 -9z" fill="#9d5cc3"/>
<path d="M5522 10085 c-387 -51 -704 -94 -706 -96 -5 -6 258 -2017 264 -2023 5 -4 1421 131 1426 137 3 3 -55 579 -58 583 -2 1 -192 -20 -422 -47 -231 -26 -421 -48 -422 -46 -2 2 -31 197 -30 197 1 1 161 25 356 54 195 29 354 57 354 62 -25 191 -69 477 -75 486 -6 9 -87 2 -361 -34 -194 -26 -354 -46 -355 -45 -3 4 -29 197 -26 197 26 0 858 101 861 105 3 3 -14 121 -37 262 -48 290 -51 303 -60 302 -3 -1 -322 -43 -709 -94z" fill="#9d5cc3"/>
<path d="M4170 9974 c-168 -47 -308 -88 -311 -92 -3 -4 34 -196 83 -427 99 -470 103 -506 54 -589 -51 -87 -174 -139 -277 -117 -68 15 -98 32 -146 84 -50 54 -59 81 -128 387 -31 134 -58 246 -59 248 -5 4 -530 -120 -539 -128 -10 -9 112 -509 153 -625 132 -372 339 -544 658 -545 186 0 369 67 484 178 28 26 39 32 43 21 3 -8 46 -185 96 -394 50 -209 91 -380 92 -381 7 -7 547 122 548 130 1 21 -436 2336 -441 2335 -3 0 -142 -39 -310 -85z" fill="#9d5cc3"/>
<path d="M6995 8606 c-59 -27 -99 -65 -128 -121 -17 -31 -21 -58 -21 -120 1 -90 19 -143 81 -228 l36 -51 -38 -114 c-20 -63 -33 -118 -29 -122 5 -4 47 -20 94 -35 l85 -27 48 54 c84 91 206 260 249 343 35 68 42 91 46 155 4 70 2 79 -29 139 -37 70 -98 122 -167 141 -68 18 -172 12 -227 -14z" fill="#9d5cc3"/>
<path d="M9293 8302 l-252 -127 180 -235 c99 -129 186 -241 192 -247 10 -10 53 -2 211 41 109 30 200 57 203 60 8 7 -260 629 -272 632 -6 2 -123 -54 -262 -124z" fill="#9d5cc3"/>
<path d="M3082 7755 c-134 -12 -246 -25 -249 -29 -14 -14 -803 -2610 -796 -2617 14 -13 538 -168 544 -161 3 4 50 127 104 275 l98 267 191 0 c105 0 254 -3 331 -6 l140 -7 75 -201 c40 -111 75 -202 76 -204 1 -1 128 30 282 69 l280 72 -12 41 c-757 2492 -768 2526 -795 2525 -14 -1 -135 -12 -269 -24z m123 -1315 c43 -168 80 -311 82 -317 4 -10 -30 -13 -151 -13 -86 0 -156 3 -156 8 -1 25 136 640 141 634 3 -4 41 -144 84 -312z" fill="#9d5cc3"/>
<path d="M10192 7731 c-240 -32 -276 -39 -290 -57 -10 -11 -145 -221 -302 -466 -157 -245 -286 -445 -288 -443 -1 1 -16 195 -33 431 -16 236 -31 429 -32 431 -5 4 -588 -45 -593 -50 -4 -4 194 -1938 199 -1944 8 -7 524 51 533 60 6 7 141 215 298 462 158 248 290 451 294 453 4 1 60 -215 125 -480 64 -265 119 -483 121 -486 5 -4 607 36 612 40 1 2 -78 471 -177 1043 -98 572 -179 1041 -179 1043 0 1 -3 1 -7 1 -5 -1 -131 -18 -281 -38z" fill="#9d5cc3"/>
<path d="M5806 7716 l-269 -21 -8 -25 c-4 -14 -72 -330 -151 -702 -105 -498 -146 -674 -154 -665 -6 7 -131 228 -279 492 -147 264 -269 481 -270 483 -4 4 -588 -28 -593 -33 -4 -4 238 -2168 243 -2173 5 -6 485 19 520 27 l31 6 -67 415 c-37 228 -66 416 -65 417 1 1 89 -114 196 -257 l194 -260 36 5 c19 3 103 12 185 20 83 8 168 17 191 20 l41 6 74 274 c41 150 75 272 77 270 2 -1 28 -155 58 -341 30 -185 56 -340 59 -342 6 -7 538 68 546 77 4 3 -56 524 -132 1156 -76 633 -139 1156 -139 1163 0 14 17 15 -324 -12z" fill="#9d5cc3"/>
<path d="M6652 7529 c-150 -15 -275 -28 -276 -30 -3 -3 179 -2326 183 -2337 1 -2 38 -21 84 -42 318 -149 728 -129 1035 52 81 47 211 180 255 258 63 115 82 196 82 350 0 151 -17 225 -80 351 -152 300 -511 483 -835 425 -46 -8 -85 -14 -86 -13 -2 1 -21 229 -44 507 -23 278 -42 505 -43 505 -1 1 -125 -11 -275 -26z m625 -1524 c98 -29 174 -112 189 -207 16 -96 -62 -200 -172 -231 -80 -22 -111 -21 -164 6 -115 57 -164 244 -95 363 22 37 49 57 105 77 29 10 87 7 137 -8z" fill="#9d5cc3"/>
<path d="M8170 7512 c-129 -19 -236 -36 -237 -36 -4 -2 204 -1807 209 -1811 7 -7 522 17 531 25 4 4 -45 424 -110 933 -113 888 -118 927 -138 926 -11 -1 -126 -17 -255 -37z" fill="#9d5cc3"/>
<path d="M867 7065 c-254 -41 -481 -170 -633 -359 -135 -167 -219 -393 -231 -617 -10 -204 23 -381 102 -544 129 -267 362 -444 671 -511 97 -20 342 -24 429 -5 228 47 417 157 550 318 52 64 135 207 125 216 -3 3 -109 57 -236 120 l-231 116 -33 -44 c-162 -217 -488 -235 -684 -39 -87 87 -125 187 -126 326 0 135 46 244 144 336 246 233 637 140 741 -176 13 -40 21 -52 33 -48 10 2 123 17 252 32 129 15 239 31 244 35 13 12 -10 140 -43 236 -100 291 -353 518 -663 593 -111 27 -296 34 -411 15z" fill="#9d5cc3"/>
<path d="M9234 5454 c-4 -14 -37 -164 -74 -332 -59 -270 -65 -308 -51 -313 19 -7 401 -33 405 -28 12 13 277 551 274 554 -6 6 -520 145 -535 145 -7 0 -16 -12 -19 -26z" fill="#9d5cc3"/>
<path d="M8315 5275 l-280 -41 2 -65 c7 -185 106 -2474 108 -2477 1 -1 111 3 244 10 l241 12 0 72 c0 150 -31 2528 -33 2529 -1 1 -128 -17 -282 -40z" fill="#9d5cc3"/>
<path d="M10340 5189 c-74 -10 -192 -26 -261 -35 l-126 -16 -278 -654 c-153 -360 -280 -652 -282 -650 -2 2 -17 189 -33 416 -16 227 -31 415 -34 418 -5 4 -587 -37 -593 -43 -4 -3 198 -1939 203 -1944 4 -4 459 36 505 45 23 4 48 59 300 654 150 356 276 647 277 645 2 -2 16 -188 31 -414 15 -226 29 -412 32 -414 2 -2 140 6 307 17 259 17 302 22 302 35 1 29 -161 1916 -166 1939 -5 26 -3 26 -184 1z" fill="#9d5cc3"/>
<path d="M5856 5109 c-125 -15 -229 -29 -231 -31 -2 -2 26 -266 61 -587 35 -321 63 -586 61 -588 -6 -5 -477 -37 -481 -32 -2 2 -25 227 -51 499 -26 272 -48 496 -49 497 0 0 -124 -11 -273 -25 l-273 -26 0 -26 c0 -32 182 -1904 186 -1908 3 -5 538 48 543 54 3 3 -3 88 -13 190 -10 102 -16 187 -14 188 7 6 480 31 484 25 2 -3 15 -119 30 -257 23 -212 30 -252 43 -252 48 0 524 50 529 55 5 5 -222 2176 -234 2233 -6 28 -20 28 -318 -9z" fill="#9d5cc3"/>
<path d="M4045 4836 l-269 -21 -140 -698 c-76 -384 -142 -693 -146 -685 -4 7 -85 220 -180 473 -96 253 -176 463 -179 466 -3 4 -139 -1 -301 -10 l-295 -16 -64 -1103 c-35 -607 -61 -1106 -57 -1109 8 -8 523 -49 530 -42 4 4 55 936 56 1025 l1 29 13 -25 c7 -14 78 -178 156 -365 78 -187 144 -342 146 -344 8 -8 449 41 455 51 3 5 57 177 119 381 107 353 129 417 130 371 1 -35 106 -663 112 -669 3 -4 126 31 272 77 243 76 266 85 266 105 0 23 -285 2054 -296 2106 -5 22 -11 27 -32 26 -15 -1 -148 -11 -297 -23z" fill="#9d5cc3"/>
<path d="M6708 4761 c-148 -15 -270 -29 -272 -32 -2 -2 26 -403 62 -891 l67 -887 85 -40 c194 -89 418 -126 620 -102 132 16 199 36 315 91 168 81 278 188 356 345 57 116 71 180 76 340 6 169 -8 240 -69 359 -52 100 -170 223 -273 284 -154 90 -361 132 -548 112 -55 -6 -101 -10 -103 -8 -3 3 -34 405 -34 443 0 8 -3 14 -7 14 -5 -1 -128 -14 -275 -28z m613 -952 c55 -17 108 -65 135 -123 75 -162 -42 -336 -226 -336 -135 0 -215 128 -181 292 29 136 142 206 272 167z" fill="#9d5cc3"/>
<path d="M2148 4656 c-152 -11 -279 -23 -282 -26 -3 -3 -72 -234 -153 -513 -81 -279 -150 -507 -153 -507 -3 0 -106 180 -229 400 -123 220 -229 406 -235 414 -9 12 -55 -4 -284 -99 -151 -62 -275 -115 -277 -117 -1 -2 184 -315 412 -697 227 -382 412 -700 409 -707 -2 -6 -24 -21 -48 -33 -56 -27 -136 -27 -243 -2 -44 11 -81 19 -81 18 -2 -3 -111 -456 -119 -493 l-6 -30 98 -24 c132 -32 366 -39 468 -16 110 26 210 81 286 157 115 114 121 131 464 1254 168 550 308 1010 311 1023 7 27 35 27 -338 -2z" fill="#9d5cc3"/>
<path d="M5364 2639 c-268 -34 -506 -203 -622 -441 -65 -132 -85 -223 -80 -362 1 -57 7 -108 11 -112 4 -5 106 -17 225 -29 l217 -20 8 64 c20 170 118 275 257 275 129 0 224 -87 237 -218 14 -145 -156 -273 -393 -293 -41 -3 -74 -9 -74 -14 0 -13 300 -614 308 -616 4 -2 88 19 187 46 l180 48 -3 89 -4 89 64 32 c148 76 273 200 342 340 55 110 69 185 64 338 -4 113 -8 141 -35 218 -108 308 -373 528 -683 566 -94 12 -117 12 -206 0z" fill="#9d5cc3"/>
<path d="M6543 2368 c4 -35 21 -397 39 -806 l32 -742 86 5 c47 3 150 8 230 11 l146 6 101 771 c55 425 99 774 97 776 -2 2 -126 10 -276 17 -150 7 -315 15 -367 19 l-93 6 5 -63z" fill="#9d5cc3"/>
<path d="M5613 806 c-89 -29 -167 -99 -206 -185 -31 -66 -31 -216 0 -283 69 -150 241 -232 415 -199 120 24 205 90 256 200 22 46 27 71 27 141 0 77 -3 92 -33 152 -37 75 -89 124 -168 159 -62 28 -226 36 -291 15z" fill="#9d5cc3"/>
<path d="M6782 730 c-117 -25 -213 -98 -261 -199 -23 -49 -26 -69 -26 -156 0 -89 3 -107 29 -162 33 -72 104 -144 169 -173 107 -47 255 -44 350 8 65 35 131 110 158 180 18 44 23 78 23 152 1 88 -1 100 -32 162 -58 118 -159 183 -300 192 -37 3 -86 1 -110 -4z" fill="#9d5cc3"/>
</g>
</svg>